{
  "accessors": [
    {
      "bufferView": 2,
      "componentType": 5126,
      "count": 9676,
      "max": [
        -1439.8599853515625,
        1596.6700439453125,
        -2273.64990234375
      ],
      "min": [
        -1664.72998046875,
        902.197998046875,
        -2706.840087890625
      ],
      "type": "VEC3"
    },
    {
      "bufferView": 2,
      "byteOffset": 116112,
      "componentType": 5126,
      "count": 9676,
      "max": [
        0.9999997615814209,
        0.9525454640388489,
        0.9999967813491821
      ],
      "min": [
        -0.9349682331085205,
        -0.9167656302452087,
        -0.9967910051345825
      ],
      "type": "VEC3"
    },
    {
      "bufferView": 1,
      "componentType": 5126,
      "count": 9676,
      "max": [
        1.0,
        1.3371700048446655
      ],
      "min": [
        0.0,
        0.0
      ],
      "type": "VEC2"
    },
    {
      "bufferView": 1,
      "byteOffset": 77408,
      "componentType": 5126,
      "count": 9676,
      "max": [
        1.0,
        1.3371700048446655
      ],
      "min": [
        0.0,
        0.0
      ],
      "type": "VEC2"
    },
    {
      "bufferView": 0,
      "componentType": 5125,
      "count": 57075,
      "type": "SCALAR"
    },
    {
      "bufferView": 2,
      "byteOffset": 232224,
      "componentType": 5126,
      "count": 9906,
      "max": [
        -1539.06005859375,
        1600.7099609375,
        -2277.080078125
      ],
      "min": [
        -1768.31005859375,
        897.2990112304688,
        -2719.590087890625
      ],
      "type": "VEC3"
    },
    {
      "bufferView": 2,
      "byteOffset": 351096,
      "componentType": 5126,
      "count": 9906,
      "max": [
        0.9992309808731079,
        0.9855712652206421,
        0.999838650226593
      ],
      "min": [
        -0.9999532103538513,
        -0.9558948874473572,
        -0.9999632239341736
      ],
      "type": "VEC3"
    },
    {
      "bufferView": 1,
      "byteOffset": 154816,
      "componentType": 5126,
      "count": 9906,
      "max": [
        1.0,
        1.3438899517059326
      ],
      "min": [
        0.0,
        0.0
      ],
      "type": "VEC2"
    },
    {
      "bufferView": 1,
      "byteOffset": 234064,
      "componentType": 5126,
      "count": 9906,
      "max": [
        1.0,
        1.3438899517059326
      ],
      "min": [
        0.0,
        0.0
      ],
      "type": "VEC2"
    },
    {
      "bufferView": 0,
      "byteOffset": 228300,
      "componentType": 5125,
      "count": 58488,
      "type": "SCALAR"
    },
    {
      "bufferView": 2,
      "byteOffset": 469968,
      "componentType": 5126,
      "count": 3823,
      "max": [
        -1544.1300048828125,
        1548.469970703125,
        -2225.89990234375
      ],
      "min": [
        -1742.18994140625,
        1261.4000244140625,
        -2795.010009765625
      ],
      "type": "VEC3"
    },
    {
      "bufferView": 2,
      "byteOffset": 515844,
      "componentType": 5126,
      "count": 3823,
      "max": [
        0.9996835589408875,
        0.9973940253257751,
        0.999697744846344
      ],
      "min": [
        -0.9993143677711487,
        -0.9914990067481995,
        -0.9987253546714783
      ],
      "type": "VEC3"
    },
    {
      "bufferView": 1,
      "byteOffset": 313312,
      "componentType": 5126,
      "count": 3823,
      "max": [
        1.795240044593811,
        0.9998670220375061
      ],
      "min": [
        0.0,
        0.0
      ],
      "type": "VEC2"
    },
    {
      "bufferView": 1,
      "byteOffset": 343896,
      "componentType": 5126,
      "count": 3823,
      "max": [
        1.795240044593811,
        0.9998670220375061
      ],
      "min": [
        0.0,
        0.0
      ],
      "type": "VEC2"
    },
    {
      "bufferView": 0,
      "byteOffset": 462252,
      "componentType": 5125,
      "count": 22110,
      "type": "SCALAR"
    },
    {
      "bufferView": 2,
      "byteOffset": 561720,
      "componentType": 5126,
      "count": 280,
      "max": [
        -1533.8800048828125,
        1606.1700439453125,
        -2391.610107421875
      ],
      "min": [
        -1673.1199951171875,
        1528.9599609375,
        -2582.8798828125
      ],
      "type": "VEC3"
    },
    {
      "bufferView": 2,
      "byteOffset": 565080,
      "componentType": 5126,
      "count": 280,
      "max": [
        0.9678670167922974,
        0.9505118727684021,
        0.4726368188858032
      ],
      "min": [
        -0.8653251528739929,
        -0.08906900137662888,
        -0.4806511700153351
      ],
      "type": "VEC3"
    },
    {
      "bufferView": 1,
      "byteOffset": 374480,
      "componentType": 5126,
      "count": 280,
      "max": [
        5.812280178070068,
        1.0
      ],
      "min": [
        0.0,
        0.0
      ],
      "type": "VEC2"
    },
    {
      "bufferView": 1,
      "byteOffset": 376720,
      "componentType": 5126,
      "count": 280,
      "max": [
        5.812280178070068,
        1.0
      ],
      "min": [
        0.0,
        0.0
      ],
      "type": "VEC2"
    },
    {
      "bufferView": 0,
      "byteOffset": 550692,
      "componentType": 5125,
      "count": 1266,
      "type": "SCALAR"
    }
  ],
  "asset": {
    "extras": {
      "author": "ajith98adithya (https://sketchfab.com/ajith98adithya)",
      "license": "CC-BY-4.0 (http://creativecommons.org/licenses/by/4.0/)",
      "source": "https://sketchfab.com/3d-models/tshirt-8c838d3ea1e8494396438b5f5dc78ad8",
      "title": "Tshirt"
    },
    "generator": "Sketchfab-12.65.0",
    "version": "2.0"
  },
  "bufferViews": [
    {
      "buffer": 0,
      "byteLength": 555756,
      "name": "floatBufferViews",
      "target": 34963
    },
    {
      "buffer": 0,
      "byteLength": 378960,
      "byteOffset": 555756,
      "byteStride": 8,
      "name": "floatBufferViews",
      "target": 34962
    },
    {
      "buffer": 0,
      "byteLength": 568440,
      "byteOffset": 934716,
      "byteStride": 12,
      "name": "floatBufferViews",
      "target": 34962
    }
  ],
  "buffers": [
    {
      "byteLength": 1503156,
      "uri": "scene.bin"
    }
  ],
  "images": [
    {
      "uri": "textures/Material1718_baseColor.jpeg"
    },
    {
      "uri": "textures/Material1722_baseColor.jpeg"
    },
    {
      "uri": "textures/Material1724_baseColor.jpeg"
    },
    {
      "uri": "textures/Infinite_Light_1_baseColor.jpeg"
    }
  ],
  "materials": [
    {
      "doubleSided": true,
      "name": "Material1718",
      "pbrMetallicRoughness": {
        "baseColorTexture": {
          "index": 0
        },
        "metallicFactor": 0.0,
        "roughnessFactor": 0.955012694
      }
    },
    {
      "doubleSided": true,
      "name": "Material1722",
      "pbrMetallicRoughness": {
        "baseColorTexture": {
          "index": 1
        },
        "metallicFactor": 0.0,
        "roughnessFactor": 0.955012694
      }
    },
    {
      "doubleSided": true,
      "name": "Material1724",
      "pbrMetallicRoughness": {
        "baseColorTexture": {
          "index": 2
        },
        "metallicFactor": 0.0,
        "roughnessFactor": 0.955012694
      }
    },
    {
      "doubleSided": true,
      "name": "Infinite_Light_1",
      "pbrMetallicRoughness": {
        "baseColorTexture": {
          "index": 3
        },
        "metallicFactor": 0.0,
        "roughnessFactor": 0.955012694
      }
    }
  ],
  "meshes": [
    {
      "name": "Material1718",
      "primitives": [
        {
          "attributes": {
            "NORMAL": 1,
            "POSITION": 0,
            "TEXCOORD_0": 2,
            "TEXCOORD_1": 3
          },
          "indices": 4,
          "material": 0,
          "mode": 4
        }
      ]
    },
    {
      "name": "Material1722",
      "primitives": [
        {
          "attributes": {
            "NORMAL": 6,
            "POSITION": 5,
            "TEXCOORD_0": 7,
            "TEXCOORD_1": 8
          },
          "indices": 9,
          "material": 1,
          "mode": 4
        }
      ]
    },
    {
      "name": "Material1724",
      "primitives": [
        {
          "attributes": {
            "NORMAL": 11,
            "POSITION": 10,
            "TEXCOORD_0": 12,
            "TEXCOORD_1": 13
          },
          "indices": 14,
          "material": 2,
          "mode": 4
        }
      ]
    },
    {
      "name": "Material1720",
      "primitives": [
        {
          "attributes": {
            "NORMAL": 16,
            "POSITION": 15,
            "TEXCOORD_0": 17,
            "TEXCOORD_1": 18
          },
          "indices": 19,
          "material": 3,
          "mode": 4
        }
      ]
    }
  ],
  "nodes": [
    {
      "children": [
        1
      ],
      "matrix": [
        1.0,
        0.0,
        0.0,
        0.0,
        0.0,
        2.220446049250313e-16,
        -1.0,
        0.0,
        0.0,
        1.0,
        2.220446049250313e-16,
        0.0,
        0.0,
        0.0,
        0.0,
        1.0
      ],
      "name": "Sketchfab_model"
    },
    {
      "children": [
        2,
        7,
        9
      ],
      "matrix": [
        1.0,
        0.0,
        0.0,
        0.0,
        0.0,
        -4.371139006309477e-08,
        0.999999999999999,
        0.0,
        0.0,
        -0.999999999999999,
        -4.371139006309477e-08,
        0.0,
        0.0,
        0.0,
        0.0,
        1.0
      ],
      "name": "Collada visual scene group"
    },
    {
      "children": [
        3,
        4,
        5,
        6
      ],
      "name": "default"
    },
    {
      "mesh": 0,
      "name": "Material1718"
    },
    {
      "mesh": 1,
      "name": "Material1722"
    },
    {
      "mesh": 2,
      "name": "Material1724"
    },
    {
      "mesh": 3,
      "name": "Material1720"
    },
    {
      "children": [
        8
      ],
      "name": "Image_Based_Light_1"
    },
    {
      "name": "Image_Based_Light_1"
    },
    {
      "children": [
        10
      ],
      "matrix": [
        0.9957140471779812,
        -0.0548771162273918,
        0.07444486796959221,
        0.0,
        0.0,
        0.8049370427195132,
        0.593360225544285,
        0.0,
        -0.09248532993099329,
        -0.5908171116111399,
        0.801487120529722,
        0.0,
        0.0,
        0.0,
        0.0,
        1.0
      ],
      "name": "Infinite_Light_1"
    },
    {
      "name": "Infinite_Light_1"
    }
  ],
  "samplers": [
    {
      "magFilter": 9729,
      "minFilter": 9987,
      "wrapS": 10497,
      "wrapT": 10497
    }
  ],
  "scene": 0,
  "scenes": [
    {
      "name": "Sketchfab_Scene",
      "nodes": [
        0
      ]
    }
  ],
  "textures": [
    {
      "sampler": 0,
      "source": 0
    },
    {
      "sampler": 0,
      "source": 1
    },
    {
      "sampler": 0,
      "source": 2
    },
    {
      "sampler": 0,
      "source": 3
    }
  ]
}
